<?xml version="1.0" encoding="utf-8"?>
<!-- Generator: Adobe Illustrator 22.1.0, SVG Export Plug-In . SVG Version: 6.00 Build 0)  -->
<svg version="1.1" id="Layer_1" xmlns="http://www.w3.org/2000/svg" xmlns:xlink="http://www.w3.org/1999/xlink" x="0px" y="0px"
	 viewBox="0 0 96 120" style="enable-background:new 0 0 96 120;" xml:space="preserve">
<title>Artboard 154</title>
<path d="M92,85.2H34.3c-3.6,0-6.6-2.5-7.3-6L26.8,78H78c1,0,1.8-0.6,2-1.6l8-36c0.2-1.1-0.4-2.1-1.5-2.4c-0.2,0-0.3-0.1-0.5,0h-8
	c-1.1,0-2,0.9-2,2s0.9,2,2,2h5.5l-7.1,32H26l-4.7-25.1h2.8c1.1,0,2-0.9,2-2s-0.9-2-2-2h-3.5L20,42h48c1.1,0,2-0.9,2-2s-0.9-2-2-2
	H19.3L15,14.6c-0.2-1-1-1.6-2-1.6H4c-1.1,0-2,0.9-2,2s0.9,2,2,2h7.3l5.2,27.9H12c-1.1,0-2,0.9-2,2s0.9,2,2,2h5.3l2.2,12H8
	c-1.1,0-2,0.9-2,2s0.9,2,2,2h12.3L23.1,80c1.1,5.4,5.8,9.2,11.2,9.2H92c1.1,0,2-0.9,2-2S93.1,85.2,92,85.2L92,85.2z"/>
<path d="M39.8,89.5c-4.3-0.1-7.8,3.3-7.9,7.6c-0.1,4.3,3.3,7.8,7.6,7.9s7.8-3.3,7.9-7.6c0-0.1,0-0.1,0-0.2
	C47.4,93,44,89.6,39.8,89.5z M39.8,101c-2.1,0.1-3.8-1.5-3.9-3.6c-0.1-2.1,1.5-3.8,3.6-3.9c2.1-0.1,3.8,1.5,3.9,3.6
	c0,0.1,0,0.1,0,0.2C43.4,99.3,41.8,101,39.8,101C39.8,101,39.8,101,39.8,101z"/>
<path d="M76.5,89.5c-4.3-0.1-7.8,3.3-7.9,7.6c-0.1,4.3,3.3,7.8,7.6,7.9c4.3,0.1,7.8-3.3,7.9-7.6c0-0.1,0-0.1,0-0.2
	C84.1,93,80.7,89.6,76.5,89.5z M76.5,101c-2.1,0.1-3.8-1.5-3.9-3.6c-0.1-2.1,1.5-3.8,3.6-3.9S80,95,80,97.1c0,0.1,0,0.1,0,0.2
	C80.1,99.3,78.5,101,76.5,101z"/>
<path d="M16.1,78.9H4c-1.1,0-2,0.9-2,2s0.9,2,2,2h12.1c1.1,0,2-0.9,2-2S17.2,78.9,16.1,78.9z"/>
</svg>
