<?xml version="1.0" encoding="utf-8"?>
<!-- Generator: Adobe Illustrator 22.1.0, SVG Export Plug-In . SVG Version: 6.00 Build 0)  -->
<svg version="1.1" id="Layer_1" xmlns="http://www.w3.org/2000/svg" xmlns:xlink="http://www.w3.org/1999/xlink" x="0px" y="0px"
	 viewBox="0 0 512 640" style="enable-background:new 0 0 512 640;" xml:space="preserve">
<g>
	<g>
		<path d="M428.7,194.5c0-2.5-1-5-2.9-6.9L350.2,112c0,0,0,0,0,0c-1.8-1.8-4.3-2.9-7-2.9h-210c-11.5,0-20.8,9.3-20.8,20.8v380.2
			c0,11.5,9.3,20.8,20.8,20.8h274.7c11.5,0,20.8-9.3,20.8-20.8V194.6C428.7,194.5,428.7,194.5,428.7,194.5z M353.1,142.8l41.9,41.9
			h-40.8c-0.6,0-1-0.5-1-1L353.1,142.8L353.1,142.8z M408.9,510.1c0,0.6-0.5,1-1,1H133.2c-0.6,0-1-0.5-1-1V129.9c0-0.6,0.5-1,1-1
			h200.1v54.8c0,11.5,9.3,20.8,20.8,20.8h54.8L408.9,510.1L408.9,510.1z"/>
	</g>
</g>
<g>
	<g>
		<path d="M357.9,244.2H183.2c-5.5,0-9.9,4.4-9.9,9.9c0,5.5,4.4,9.9,9.9,9.9h174.8c5.5,0,9.9-4.4,9.9-9.9
			C367.8,248.6,363.4,244.2,357.9,244.2z"/>
	</g>
</g>
<g>
	<g>
		<path d="M357.9,303.8H183.2c-5.5,0-9.9,4.4-9.9,9.9s4.4,9.9,9.9,9.9h174.8c5.5,0,9.9-4.4,9.9-9.9
			C367.8,308.2,363.4,303.8,357.9,303.8z"/>
	</g>
</g>
<g>
	<g>
		<path d="M357.9,363.4H183.2c-5.5,0-9.9,4.4-9.9,9.9c0,5.5,4.4,9.9,9.9,9.9h174.8c5.5,0,9.9-4.4,9.9-9.9
			C367.8,367.8,363.4,363.4,357.9,363.4z"/>
	</g>
</g>
<g>
	<g>
		<path d="M270.5,423h-87.4c-5.5,0-9.9,4.4-9.9,9.9c0,5.5,4.4,9.9,9.9,9.9h87.4c5.5,0,9.9-4.4,9.9-9.9S276,423,270.5,423z"/>
	</g>
</g>
</svg>
