<?xml version="1.0" encoding="utf-8"?>
<!-- Generator: Adobe Illustrator 22.1.0, SVG Export Plug-In . SVG Version: 6.00 Build 0)  -->
<svg version="1.1" id="Layer_1" xmlns="http://www.w3.org/2000/svg" xmlns:xlink="http://www.w3.org/1999/xlink" x="0px" y="0px"
	 viewBox="0 0 100 125" style="enable-background:new 0 0 100 125;" xml:space="preserve">
<g>
	<g>
		<path d="M28.6,87c-0.2,0-0.5-0.1-0.7-0.2L14,79.5c-0.5-0.3-0.8-0.8-0.8-1.3V67.9c0-0.5,0.3-1,0.7-1.3c0.4-0.3,1-0.3,1.5,0
			l13.9,7.3c0.5,0.3,0.8,0.8,0.8,1.3v10.2c0,0.5-0.3,1-0.7,1.3C29.1,86.9,28.9,87,28.6,87z M16.2,77.3L27.1,83v-6.9l-10.9-5.7V77.3z
			"/>
	</g>
	<g>
		<g>
			<path d="M35.8,98.1c-0.2,0-0.5-0.1-0.7-0.2L6.7,83c-0.5-0.3-0.8-0.8-0.8-1.3V23.4c0-0.5,0.3-1,0.7-1.3c0.4-0.3,1-0.3,1.5,0
				L36.5,37c0.5,0.3,0.8,0.8,0.8,1.3v58.2c0,0.5-0.3,1-0.7,1.3C36.4,98,36.1,98.1,35.8,98.1z M8.9,80.7l25.4,13.4V39.3L8.9,25.9
				V80.7z"/>
		</g>
		<g>
			<path d="M35.8,98.1c-0.5,0-1.1-0.3-1.3-0.8c-0.4-0.7-0.1-1.6,0.6-2l27.6-14.5V25.9L36.5,39.7c-0.7,0.4-1.6,0.1-2-0.6
				s-0.1-1.6,0.6-2l28.4-14.9c0.5-0.2,1-0.2,1.5,0c0.4,0.3,0.7,0.8,0.7,1.3v58.2c0,0.6-0.3,1.1-0.8,1.3L36.5,97.9
				C36.3,98,36,98.1,35.8,98.1z"/>
		</g>
		<g>
			<path d="M92.6,98.1c-0.2,0-0.5-0.1-0.7-0.2L63.5,83c-0.7-0.4-1-1.3-0.6-2c0.4-0.7,1.3-1,2-0.6l26.2,13.8V39.3L63.5,24.7
				c-0.7-0.4-1-1.3-0.6-2c0.4-0.7,1.3-1,2-0.6L93.3,37c0.5,0.3,0.8,0.8,0.8,1.3v58.2c0,0.5-0.3,1-0.7,1.3
				C93.1,98,92.8,98.1,92.6,98.1z"/>
		</g>
	</g>
	<g>
		<g>
			<path d="M9.9,55.5c-0.3,0-0.7-0.1-0.9-0.3c-0.7-0.6-1.5-1.1-2.2-1.5c-0.7-0.4-1-1.3-0.7-2c0.4-0.7,1.3-1,2-0.7
				c0.9,0.5,1.9,1.1,2.8,1.8c0.6,0.5,0.7,1.5,0.2,2.1C10.8,55.3,10.4,55.5,9.9,55.5z"/>
		</g>
		<g>
			<path d="M26.4,66.5c-1.4,0-2.8-0.2-4.1-0.5c-0.8-0.2-1.3-1-1.1-1.8c0.2-0.8,1-1.3,1.8-1.1c1,0.3,2.1,0.4,3.3,0.4
				c0.6,0,1.1,0,1.7-0.1c0.8-0.1,1.6,0.5,1.7,1.3c0.1,0.8-0.5,1.6-1.3,1.7C27.8,66.5,27.1,66.5,26.4,66.5z M33.5,64.5
				c-0.5,0-1-0.2-1.3-0.7c-0.4-0.7-0.2-1.6,0.5-2.1c1.5-1,2.8-2.3,3.9-3.4c0.6-0.6,1.5-0.6,2.1-0.1c0.6,0.6,0.6,1.5,0.1,2.1
				c-1.2,1.3-2.7,2.8-4.5,3.9C34,64.5,33.8,64.5,33.5,64.5z M17.8,63.4c-0.3,0-0.7-0.1-0.9-0.3c-1.5-1.2-2.8-2.7-4.1-4.1
				c-0.6-0.6-0.5-1.6,0.1-2.1c0.6-0.6,1.6-0.5,2.1,0.1l0,0c1.2,1.4,2.4,2.7,3.7,3.8c0.6,0.5,0.7,1.5,0.2,2.1
				C18.7,63.2,18.3,63.4,17.8,63.4z M65.2,61c-0.4,0-0.8-0.2-1.1-0.5c-0.5-0.5-0.9-1-1.3-1.5c-0.8-0.9-1.6-1.8-2.4-2.6
				c-0.6-0.6-0.6-1.5,0-2.1c0.6-0.6,1.5-0.6,2.1,0c0.9,0.9,1.7,1.8,2.5,2.7c0.4,0.5,0.9,1,1.3,1.4c0.6,0.6,0.5,1.6-0.1,2.1
				C65.9,60.8,65.6,61,65.2,61z M41.5,56.7c-0.4,0-0.8-0.2-1.1-0.5c-0.6-0.6-0.6-1.5,0-2.1c1.7-1.6,3.3-2.7,5-3.5
				c0.8-0.3,1.6,0,2,0.8c0.3,0.8,0,1.6-0.8,2c-1.4,0.6-2.7,1.5-4.1,2.9C42.2,56.6,41.9,56.7,41.5,56.7z M56.9,53.6
				c-0.2,0-0.4,0-0.6-0.1c-1.5-0.7-3-1-4.8-1c-0.8,0-1.5-0.7-1.5-1.5c0-0.8,0.7-1.5,1.5-1.5c0,0,0,0,0,0c2.2,0,4.2,0.4,6,1.2
				c0.8,0.3,1.1,1.2,0.8,2C58,53.3,57.5,53.6,56.9,53.6z"/>
		</g>
		<g>
			<path d="M72.2,65.9c-0.1,0-0.3,0-0.4-0.1c-1.1-0.3-2.1-0.8-3.1-1.4c-0.7-0.4-0.9-1.4-0.5-2.1c0.4-0.7,1.4-0.9,2.1-0.5
				c0.8,0.5,1.6,0.8,2.4,1.1c0.8,0.2,1.2,1.1,1,1.9C73.5,65.5,72.9,65.9,72.2,65.9z"/>
		</g>
	</g>
	<g>
		<g>
			<path d="M86.4,76.3c-0.5,0-1-0.3-1.3-0.7l-8.8-14.1c-0.4-0.7-0.2-1.6,0.5-2.1c0.7-0.4,1.6-0.2,2.1,0.5L87.7,74
				c0.4,0.7,0.2,1.6-0.5,2.1C87,76.2,86.7,76.3,86.4,76.3z"/>
		</g>
		<g>
			<path d="M77.7,71.9c-0.5,0-1-0.3-1.3-0.7c-0.4-0.7-0.2-1.6,0.5-2.1l8.8-5.2c0.7-0.4,1.6-0.2,2.1,0.5c0.4,0.7,0.2,1.6-0.5,2.1
				l-8.8,5.2C78.2,71.8,77.9,71.9,77.7,71.9z"/>
		</g>
	</g>
</g>
</svg>
