<?xml version="1.0" encoding="utf-8"?>
<!-- Generator: Adobe Illustrator 22.1.0, SVG Export Plug-In . SVG Version: 6.00 Build 0)  -->
<svg version="1.1" id="Layer_1" xmlns="http://www.w3.org/2000/svg" xmlns:xlink="http://www.w3.org/1999/xlink" x="0px" y="0px"
	 viewBox="0 0 100 125" style="enable-background:new 0 0 100 125;" xml:space="preserve">
<title>User</title>
<path d="M84.7,111H15.3c-5.4,0-10.1-3.5-11.6-8.7l-0.1-0.3l-0.1-0.2v-0.2c-0.2-0.9-0.3-1.9-0.3-2.8c0-1.8,0.4-3.6,1.2-5.2
	c1-4.5,2.8-8.8,5.5-12.6c1.9-2.9,4.6-5.2,7.7-6.7c3.6-1.7,7.3-3.3,10.9-4.8l5.3-2.3c0.6-0.3,1.2-0.3,1.8-0.2
	c1.1,0.3,1.7,1.4,1.3,2.5c-0.2,0.8-1,1.4-1.8,1.4c-1.7,0.8-3.4,1.5-5.1,2.2c-3.5,1.5-7.2,3.1-10.7,4.8c-2.5,1.2-4.6,3-6.1,5.3
	c-2.4,3.4-4.1,7.3-4.9,11.4L8,94.9l-0.1,0.2C7.3,96.3,7,97.5,7,98.8c0,0.6,0.1,1.3,0.2,1.9l0.1,0.4c1.1,3.5,4.3,5.9,7.9,5.9h69.5
	c3.7,0,6.9-2.5,7.9-6l0.1-0.2c0.2-0.7,0.3-1.3,0.3-2c-0.1-1.3-0.4-2.6-0.9-3.8l-0.1-0.3c-0.5-2-1.1-3.9-1.8-5.8
	c-2.2-5.5-5.4-9.2-9.8-11.3c-3.4-1.6-7-3.1-10.4-4.6c-1.6-0.7-3.3-1.4-4.9-2.1c-1.1-0.1-1.9-1.1-1.7-2.2c0.1-0.7,0.6-1.3,1.2-1.6
	c0.6-0.2,1.3-0.1,1.8,0.2c1.7,0.7,3.4,1.5,5.1,2.2c3.5,1.5,7.1,3,10.5,4.6c5.3,2.5,9.1,6.9,11.7,13.4c0.8,2,1.5,4.1,2,6.2
	c0.7,1.7,1.1,3.4,1.2,5.2c0,1.1-0.2,2.2-0.4,3.2c0,0.1,0,0.2-0.1,0.3C94.9,107.4,90.1,111,84.7,111z M35.2,70.9L35.2,70.9z
	 M64.8,70.9L64.8,70.9z"/>
<path d="M50.1,14.9c3.1,0,6.2,0.7,8.9,2.2c4.1,2.4,6.1,5.9,6.4,11.1c0.1,1.1,0.1,2.3,0.1,3.5c0,1,0,2,0,3c0.1,1.5,0.7,2.8,1.8,3.8
	c0.1,0.4,0.2,0.9,0.2,1.3c0.2,3.5-1.1,6.6-3.9,9.8c-0.7,0.8-1.3,1.8-1.7,2.9c-0.9,3-2.5,5.6-4.9,7.7c-1.9,1.7-4.4,2.7-7,2.8
	c-2.7-0.1-5.2-1.2-7.2-3c-2.2-2-3.8-4.6-4.7-7.4c-0.4-1.1-0.9-2.1-1.7-2.9c-2.8-3.2-4-6.3-3.9-9.8c0-0.4,0.1-0.8,0.1-1.2
	c1.3-1,1.9-2.6,1.7-4.2c-0.2-2.6,0-5.3,0.6-7.9c0.2-1,0.7-1.8,1.3-2.6c0.8-0.8,1.4-1.9,1.6-3c0.3-1.9,1.6-3.5,3.5-4.1
	C44.1,15.7,47.1,15,50.1,14.9 M50.1,11c-3.5,0-7,0.8-10.3,2.2c-3,1.1-5.2,3.8-5.8,7c0,0.3-0.2,0.6-0.4,0.9c-1.2,1.2-2,2.7-2.4,4.3
	c-0.8,3-1,6.1-0.8,9.1c0,0.3,0,0.8-0.2,0.9c-1.4,1-1.6,2.5-1.6,4.1c-0.3,4.9,1.7,9,4.8,12.6c0.4,0.5,0.7,1,0.9,1.6
	c1.1,3.5,3.1,6.7,5.8,9.2c2.7,2.5,6.1,3.9,9.8,4c3.5-0.1,6.9-1.4,9.5-3.7c2.9-2.5,5.1-5.8,6.2-9.5c0.2-0.5,0.5-1.1,0.9-1.5
	c3.2-3.6,5.1-7.7,4.9-12.6c0.1-1.4-0.4-2.8-1.4-3.9c-0.3-0.3-0.5-0.7-0.6-1.1c-0.1-2.2,0-4.4-0.1-6.6C69,21.8,66.4,16.9,61,13.7
	C57.7,11.9,53.9,11,50.1,11L50.1,11z"/>
</svg>
